<svg xmlns="http://www.w3.org/2000/svg" viewBox="0 0 1200 760" role="img" aria-labelledby="title desc">
  <title id="title">Nepal route map</title>
  <desc id="desc">Nepal itinerary: Gyirong border, Kathmandu, Bhaktapur, Nagarkot, Patan, Lumbini, Sonauli border.</desc>
  <defs>
    <filter id="shadow" x="-20%" y="-20%" width="140%" height="140%"><feDropShadow dx="0" dy="2" stdDeviation="3" flood-opacity="0.16" /></filter>
    <clipPath id="map-clip"><rect x="42" y="82" width="810" height="620" rx="18" /></clipPath>
  </defs>
  <style>
    .background{fill:#f5f1e9}.map-frame{fill:#dce8ea}.country{stroke:#8b8a82;stroke-width:1.4;vector-effect:non-scaling-stroke}.context-country{fill:#eeeae1;stroke:#aaa79f}.route-country{fill:#d8d0bf;stroke:#74736d;stroke-width:1.7}.country-label{font:700 10px Arial,sans-serif;fill:#77736b;letter-spacing:1px;text-anchor:middle;paint-order:stroke;stroke:#f1ede5;stroke-width:3px}.route-halo{fill:none;stroke:#fff;stroke-width:9;stroke-linecap:round;stroke-linejoin:round;opacity:.82}.route{fill:none;stroke:#d45545;stroke-width:5;stroke-linecap:round;stroke-linejoin:round}.stop circle{fill:#d45545;stroke:#fff;stroke-width:2.5;filter:url(#shadow);transition:stroke-width .15s ease}.stop.start circle{fill:#24735c}.stop.end circle{stroke:#71312d;stroke-width:3}.stop text{font:700 10px Arial,sans-serif;fill:#fff;text-anchor:middle}.place-label{font:600 14px Arial,sans-serif;fill:#292824;paint-order:stroke;stroke:#f5f1e9;stroke-width:4;stroke-linejoin:round}.title{font:700 34px Georgia,serif;fill:#292824}.route-title{font:700 13px Arial,sans-serif;fill:#77736b;letter-spacing:2px}.summary-number{font:700 13px Arial,sans-serif;fill:#d45545}.summary-text{font:600 14px Arial,sans-serif;fill:#292824}.attribution{font:11px Arial,sans-serif;fill:#77736b}.divider{stroke:#cbc5b9;stroke-width:1}.stop-link{cursor:pointer;outline:none}.summary-text,.place-label{transition:fill .15s ease}.summary-stop:hover .summary-text,.summary-stop:focus-visible .summary-text,.summary-stop.is-linked-hover .summary-text,.place-label:hover,.place-label:focus-visible,.place-label.is-linked-hover{fill:#a83d35;text-decoration:underline}.stop:hover circle,.stop:focus-visible circle,.stop.is-linked-hover circle{stroke:#292824;stroke-width:4}.lightbox-map .divider,.lightbox-map .route-title,.lightbox-map .summary-stop{display:none}
  </style>
  <rect class="background" width="1200" height="760" rx="24" />
  <text class="title" x="42" y="52">Nepal</text>
  <rect class="map-frame" x="42" y="82" width="810" height="620" rx="18" />
  <g clip-path="url(#map-clip)">
    <path class="country route-country" d="M1486.1,391.0 L1492.0,425.8 L1463.7,442.6 L1470.4,499.3 L1412.4,482.6 L1307.7,546.1 L1310.0,598.7 L1265.4,675.9 L1261.3,720.8 L1225.1,796.6 L1161.9,775.5 L1158.7,870.8 L1140.3,902.1 L1149.0,941.1 L1109.1,962.9 L1066.2,817.1 L1044.1,817.4 L1030.6,876.1 L986.3,828.5 L1011.4,776.2 L1047.6,770.9 L1084.9,693.1 L1038.2,677.3 L963.3,678.6 L886.0,666.0 L879.0,602.2 L840.2,597.5 L776.1,557.8 L747.5,620.2 L805.8,668.9 L755.4,703.2 L737.3,736.6 L787.2,761.4 L773.5,816.8 L801.4,885.9 L814.0,961.5 L802.6,995.1 L747.5,994.1 L647.5,1013.0 L652.1,1082.3 L609.0,1136.6 L492.3,1198.6 L401.7,1306.7 L340.7,1364.8 L260.2,1425.0 L259.9,1467.2 L219.7,1489.9 L146.5,1522.9 L108.9,1527.7 L84.4,1597.8 L101.3,1717.4 L105.7,1793.7 L71.3,1881.0 L71.0,2037.3 L29.0,2041.8 L-7.8,2111.8 L16.7,2142.2 L-57.0,2168.3 L-84.2,2230.7 L-116.8,2257.2 L-193.5,2171.3 L-230.8,2042.6 L-262.0,1949.8 L-290.3,1906.4 L-333.5,1818.0 L-353.6,1703.0 L-367.6,1645.5 L-441.4,1519.3 L-474.9,1341.1 L-499.1,1223.5 L-498.8,1112.0 L-514.6,1026.0 L-632.4,1080.9 L-689.5,1070.0 L-795.1,958.6 L-756.3,925.3 L-780.2,889.2 L-875.3,811.2 L-821.3,749.7 L-642.9,750.0 L-659.2,671.1 L-704.7,624.4 L-713.7,553.6 L-766.8,512.4 L-677.6,416.0 L-583.4,423.0 L-498.8,326.5 L-448.1,233.3 L-369.3,141.0 L-370.5,75.5 L-301.7,22.3 L-367.0,-23.2 L-395.0,-85.4 L-423.9,-165.9 L-383.9,-205.6 L-261.2,-183.2 L-170.8,-196.9 L-92.6,-274.1 L-5.7,-166.4 L-13.9,-91.3 L18.5,-44.2 L15.9,2.7 L-42.5,-9.6 L-19.7,91.7 L59.9,149.9 L172.5,214.2 L121.1,255.9 L89.6,341.9 L168.1,376.8 L244.5,421.8 L350.0,473.5 L461.1,485.3 L507.8,532.1 L570.5,540.8 L667.9,562.3 L735.3,560.8 L744.6,524.3 L734.1,466.0 L740.2,426.3 L789.8,407.0 L796.5,479.4 L798.2,497.9 L871.7,532.8 L922.8,518.4 L991.0,524.5 L1057.2,521.9 L1063.0,465.4 L1030.1,435.9 L1095.4,424.4 L1168.9,356.1 L1262.5,297.6 L1330.4,320.2 L1388.2,281.4 L1426.1,338.5 L1398.6,377.1 L1486.1,391.0 Z"><title>India</title></path>
<path class="country route-country" d="M1109.1,962.9 L1107.3,1028.9 L1079.1,1014.9 L1084.3,1089.0 L1061.3,1041.1 L1056.6,994.2 L1041.1,949.9 L1007.3,896.3 L932.7,892.7 L940.0,930.6 L914.6,981.8 L880.2,963.1 L868.2,979.9 L845.5,969.8 L814.0,961.5 L801.4,885.9 L773.5,816.8 L787.2,761.4 L737.3,736.6 L755.4,703.2 L805.8,668.9 L747.5,620.2 L776.1,557.8 L840.2,597.5 L879.0,602.2 L886.0,666.0 L963.3,678.6 L1038.2,677.3 L1084.9,693.1 L1047.6,770.9 L1011.4,776.2 L986.3,828.5 L1030.6,876.1 L1044.1,817.4 L1066.2,817.1 L1109.1,962.9 Z"><title>Bangladesh</title></path>
<path class="country route-country" d="M1030.1,435.9 L1063.0,465.4 L1057.2,521.9 L991.0,524.5 L922.8,518.4 L871.7,532.8 L798.2,497.9 L796.5,479.4 L850.1,411.0 L893.9,387.7 L951.6,409.0 L994.5,411.2 L1030.1,435.9 Z"><title>Bhutan</title></path>
<path class="country route-country" d="M740.2,426.3 L734.1,466.0 L744.6,524.3 L735.3,560.8 L667.9,562.3 L570.5,540.8 L507.8,532.1 L461.1,485.3 L350.0,473.5 L244.5,421.8 L168.1,376.8 L89.6,341.9 L121.1,255.9 L172.5,214.2 L206.0,192.2 L271.0,220.5 L352.7,280.5 L398.5,293.5 L425.6,337.7 L488.6,355.9 L554.2,396.3 L645.7,417.4 L740.2,426.3 Z"><title>Nepal</title></path>
<path class="country route-country" d="M2470.0,1316.4 L2403.5,1287.9 L2401.2,1208.7 L2441.1,1167.1 L2529.8,1141.3 L2576.1,1143.5 L2594.2,1178.6 L2558.6,1219.1 L2540.0,1272.2 L2470.0,1316.4 Z M103.6,-904.5 L97.2,-957.0 L152.6,-981.0 L79.7,-1140.6 L240.1,-1177.4 L281.8,-1197.8 L340.1,-1362.4 L500.8,-1332.2 L546.0,-1373.8 L549.8,-1465.9 L616.9,-1474.6 L678.7,-1535.8 L710.5,-1543.4 L731.8,-1479.1 L799.7,-1430.4 L915.2,-1395.9 L971.2,-1321.8 L940.0,-1214.4 L969.1,-1174.6 L1065.3,-1158.8 L1174.4,-1145.9 L1272.4,-1088.7 L1322.2,-1078.4 L1359.3,-993.7 L1406.8,-939.1 L1496.0,-941.3 L1663.4,-920.6 L1771.0,-933.3 L1850.9,-919.6 L1970.8,-863.8 L2068.8,-863.9 L2104.6,-835.3 L2199.1,-884.8 L2329.7,-916.7 L2451.3,-920.1 L2545.8,-952.5 L2604.1,-1001.7 L2660.7,-1032.6 L2647.6,-1063.0 L2621.6,-1098.3 L2664.2,-1157.6 L2709.7,-1149.3 L2793.1,-1130.7 L2873.9,-1179.4 L2997.2,-1215.0 L3056.7,-1275.9 L3113.6,-1302.0 L3231.4,-1314.2 L3295.2,-1303.9 L3304.0,-1336.6 L3230.8,-1400.9 L3165.8,-1430.3 L3103.4,-1396.2 L3023.5,-1410.5 L2977.7,-1399.0 L2956.7,-1436.5 L3014.1,-1528.3 L3053.5,-1597.7 L3150.6,-1563.0 L3264.9,-1621.1 L3264.0,-1661.5 L3337.2,-1759.1 L3382.4,-1788.5 L3381.3,-1839.3 L3336.9,-1861.2 L3403.7,-1907.0 L3504.3,-1923.5 L3611.9,-1926.0 L3732.9,-1898.6 L3804.1,-1864.8 L3854.2,-1772.0 L3884.6,-1732.5 L3912.9,-1676.0 L3942.9,-1585.9 L4083.7,-1556.5 L4179.7,-1491.1 L4212.3,-1404.7 L4335.7,-1404.6 L4405.7,-1440.9 L4539.5,-1468.1 L4496.9,-1385.3 L4465.7,-1351.7 L4437.7,-1251.0 L4383.5,-1161.5 L4284.9,-1177.7 L4215.5,-1145.3 L4236.8,-1066.6 L4225.2,-957.9 L4183.7,-955.4 L4184.3,-908.7 L4132.1,-962.9 L4099.8,-911.4 L3974.7,-871.9 L3987.5,-823.3 L3917.2,-826.7 L3879.0,-855.5 L3823.3,-790.3 L3734.1,-740.8 L3667.9,-681.8 L3554.8,-655.2 L3495.3,-612.1 L3407.8,-587.0 L3451.0,-629.7 L3434.0,-665.5 L3498.2,-727.3 L3455.3,-775.5 L3384.8,-743.0 L3293.2,-679.0 L3243.3,-619.7 L3164.0,-615.2 L3122.6,-572.4 L3165.5,-510.2 L3231.7,-495.1 L3234.3,-453.8 L3298.4,-426.9 L3389.1,-492.6 L3461.2,-456.8 L3513.4,-454.4 L3526.5,-406.2 L3411.9,-380.5 L3374.0,-330.9 L3295.2,-284.8 L3253.8,-220.4 L3341.0,-169.8 L3372.8,-79.4 L3422.1,4.8 L3477.2,75.5 L3475.7,143.8 L3425.0,168.9 L3444.2,217.9 L3492.1,246.5 L3479.5,321.4 L3458.8,394.2 L3413.6,402.5 L3354.4,502.1 L3288.8,622.7 L3213.6,732.4 L3102.2,817.3 L2989.6,894.8 L2898.4,905.3 L2848.8,946.1 L2820.8,916.2 L2775.0,962.0 L2661.9,1008.1 L2576.1,1022.1 L2548.4,1119.2 L2503.5,1124.6 L2482.2,1057.9 L2501.5,1022.4 L2392.7,993.0 L2354.5,1007.9 L2272.9,983.9 L2234.4,946.6 L2247.2,893.7 L2173.1,876.9 L2134.1,842.3 L2065.3,891.3 L1986.2,901.9 L1921.8,901.4 L1878.3,924.0 L1836.3,937.4 L1848.6,1042.6 L1805.4,1040.1 L1798.1,1018.5 L1795.5,980.5 L1736.3,1007.3 L1701.0,990.3 L1641.0,955.8 L1664.6,879.5 L1613.3,861.6 L1594.0,776.9 L1508.6,792.2 L1518.2,683.1 L1594.9,606.4 L1598.1,530.6 L1595.8,460.2 L1560.5,438.3 L1533.4,384.1 L1486.1,391.0 L1398.6,377.1 L1426.1,338.5 L1388.2,281.4 L1330.4,320.2 L1262.5,297.6 L1168.9,356.1 L1095.4,424.4 L1030.1,435.9 L994.5,411.2 L951.6,409.0 L893.9,387.7 L850.1,411.0 L796.5,479.4 L789.8,407.0 L740.2,426.3 L645.7,417.4 L554.2,396.3 L488.6,355.9 L425.6,337.7 L398.5,293.5 L352.7,280.5 L271.0,220.5 L206.0,192.2 L172.5,214.2 L59.9,149.9 L-19.7,91.7 L-42.5,-9.6 L15.9,2.7 L18.5,-44.2 L-13.9,-91.3 L-5.7,-166.4 L-92.6,-274.1 L-225.9,-311.3 L-249.8,-381.9 L-309.6,-424.9 L-324.1,-451.2 L-336.4,-503.6 L-333.5,-539.4 L-382.8,-560.3 L-409.3,-551.1 L-429.7,-636.1 L-406.7,-657.2 L-418.0,-678.7 L-340.5,-722.1 L-284.5,-740.2 L-198.8,-727.7 L-168.1,-786.6 L-64.3,-797.5 L-35.5,-833.9 L92.3,-883.7 L103.6,-904.5 Z"><title>China</title></path>
    <text class="country-label" x="447.0" y="392.0">India</text>
<text class="country-label" x="794.6" y="601.3">Bangladesh</text>
<text class="country-label" x="824.2" y="460.2">Bhutan</text>
<text class="country-label" x="417.1" y="377.3">Nepal</text>
<text class="country-label" x="447.0" y="392.0">China</text>
    <path class="route-halo" d="M518.3,389.2 L513.4,440.7 L522.3,445.3 L529.6,440.7 L513.4,445.3 L348.2,462.8 L363.6,463.7" />
    <path class="route" d="M518.3,389.2 L513.4,440.7 L522.3,445.3 L529.6,440.7 L513.4,445.3 L348.2,462.8 L363.6,463.7" />
    <g class="stop stop-link start" data-section="0" data-stop-name="Gyirong border" transform="translate(518.3 389.2)">
      <circle r="10" />
      <text x="0" y="4">1</text>
      <title>1. Gyirong border</title>
    </g>
<g class="stop stop-link" data-section="0" data-stop-name="Kathmandu" transform="translate(513.4 440.7)">
      <circle r="10" />
      <text x="0" y="4">2</text>
      <title>2. Kathmandu</title>
    </g>
<g class="stop stop-link" data-section="1" data-stop-name="Bhaktapur" transform="translate(522.3 445.3)">
      <circle r="10" />
      <text x="0" y="4">3</text>
      <title>3. Bhaktapur</title>
    </g>
<g class="stop stop-link" data-section="1" data-stop-name="Nagarkot" transform="translate(529.6 440.7)">
      <circle r="10" />
      <text x="0" y="4">4</text>
      <title>4. Nagarkot</title>
    </g>
<g class="stop stop-link" data-section="3" data-stop-name="Patan" transform="translate(513.4 445.3)">
      <circle r="10" />
      <text x="0" y="4">5</text>
      <title>5. Patan</title>
    </g>
<g class="stop stop-link" data-section="4" data-stop-name="Lumbini" transform="translate(348.2 462.8)">
      <circle r="10" />
      <text x="0" y="4">6</text>
      <title>6. Lumbini</title>
    </g>
<g class="stop stop-link end" data-section="4" data-stop-name="Sonauli border" transform="translate(363.6 463.7)">
      <circle r="10" />
      <text x="0" y="4">7</text>
      <title>7. Sonauli border</title>
    </g>
    <text class="place-label stop-link" data-section="0" data-stop-name="Gyirong border" x="530.3" y="379.2" text-anchor="start">Gyirong border</text>
<text class="place-label stop-link" data-section="0" data-stop-name="Kathmandu" x="525.4" y="458.7" text-anchor="start">Kathmandu</text>
<text class="place-label stop-link" data-section="1" data-stop-name="Bhaktapur" x="534.3" y="435.3" text-anchor="start">Bhaktapur</text>

<text class="place-label stop-link" data-section="3" data-stop-name="Patan" x="525.4" y="435.3" text-anchor="start">Patan</text>
<text class="place-label stop-link" data-section="4" data-stop-name="Lumbini" x="360.2" y="480.8" text-anchor="start">Lumbini</text>

  </g>
  <line class="divider" x1="878" y1="82" x2="878" y2="702" />
  <text class="route-title" x="900" y="108">ROUTE</text>
  <g class="summary-stop stop-link" data-section="0" data-stop-name="1. Gyirong border" transform="translate(900 145.0)">
      
      <text class="summary-text" x="0" y="0"><tspan x="0" dy="0">1. Gyirong border</tspan></text>
    </g>
<g class="summary-stop stop-link" data-section="0" data-stop-name="2. Kathmandu" transform="translate(900 203.0)">
      
      <text class="summary-text" x="0" y="0"><tspan x="0" dy="0">2. Kathmandu</tspan></text>
    </g>
<g class="summary-stop stop-link" data-section="1" data-stop-name="3. Bhaktapur" transform="translate(900 261.0)">
      
      <text class="summary-text" x="0" y="0"><tspan x="0" dy="0">3. Bhaktapur</tspan></text>
    </g>
<g class="summary-stop stop-link" data-section="1" data-stop-name="4. Nagarkot" transform="translate(900 319.0)">
      
      <text class="summary-text" x="0" y="0"><tspan x="0" dy="0">4. Nagarkot</tspan></text>
    </g>
<g class="summary-stop stop-link" data-section="3" data-stop-name="5. Patan" transform="translate(900 377.0)">
      
      <text class="summary-text" x="0" y="0"><tspan x="0" dy="0">5. Patan</tspan></text>
    </g>
<g class="summary-stop stop-link" data-section="4" data-stop-name="6. Lumbini" transform="translate(900 435.0)">
      
      <text class="summary-text" x="0" y="0"><tspan x="0" dy="0">6. Lumbini</tspan></text>
    </g>
<g class="summary-stop stop-link" data-section="4" data-stop-name="7. Sonauli border" transform="translate(900 493.0)">
      
      <text class="summary-text" x="0" y="0"><tspan x="0" dy="0">7. Sonauli border</tspan></text>
    </g>
  <text class="attribution" x="42" y="735">Country boundaries: Natural Earth via world-atlas · Route positions are approximate</text>
</svg>