<svg xmlns="http://www.w3.org/2000/svg" viewBox="0 0 1200 760" role="img" aria-labelledby="title desc">
  <title id="title">South America route map</title>
  <desc id="desc">South America itinerary: Lima, Huaraz, Trujillo, Paracas, Ica, Nazca, Arequipa, Cusco, Machu Picchu, Puerto Maldonado, Puno, Copacabana, La Paz, Cochabamba, Torotoro, Sucre, Potosi, Uyuni, San Pedro de Atacama, Santiago, Punta Arenas, Puerto Natales, El Calafate, El Chalten, Perito Moreno.</desc>
  <defs>
    <filter id="shadow" x="-20%" y="-20%" width="140%" height="140%"><feDropShadow dx="0" dy="2" stdDeviation="3" flood-opacity="0.16" /></filter>
    <clipPath id="map-clip"><rect x="42" y="82" width="810" height="620" rx="18" /></clipPath>
  </defs>
  <style>
    .background{fill:#f5f1e9}.map-frame{fill:#dce8ea}.country{stroke:#8b8a82;stroke-width:1.4;vector-effect:non-scaling-stroke}.context-country{fill:#eeeae1;stroke:#aaa79f}.route-country{fill:#d8d0bf;stroke:#74736d;stroke-width:1.7}.country-label{font:700 10px Arial,sans-serif;fill:#77736b;letter-spacing:1px;text-anchor:middle;paint-order:stroke;stroke:#f1ede5;stroke-width:3px}.route-halo{fill:none;stroke:#fff;stroke-width:9;stroke-linecap:round;stroke-linejoin:round;opacity:.82}.route{fill:none;stroke:#d45545;stroke-width:5;stroke-linecap:round;stroke-linejoin:round}.stop circle{fill:#d45545;stroke:#fff;stroke-width:2.5;filter:url(#shadow);transition:stroke-width .15s ease}.stop.start circle{fill:#24735c}.stop.end circle{stroke:#71312d;stroke-width:3}.stop text{font:700 10px Arial,sans-serif;fill:#fff;text-anchor:middle}.place-label{font:600 14px Arial,sans-serif;fill:#292824;paint-order:stroke;stroke:#f5f1e9;stroke-width:4;stroke-linejoin:round}.title{font:700 34px Georgia,serif;fill:#292824}.route-title{font:700 13px Arial,sans-serif;fill:#77736b;letter-spacing:2px}.summary-number{font:700 13px Arial,sans-serif;fill:#d45545}.summary-text{font:600 14px Arial,sans-serif;fill:#292824}.attribution{font:11px Arial,sans-serif;fill:#77736b}.divider{stroke:#cbc5b9;stroke-width:1}.stop-link{cursor:pointer;outline:none}.summary-text,.place-label{transition:fill .15s ease}.summary-stop:hover .summary-text,.summary-stop:focus-visible .summary-text,.summary-stop.is-linked-hover .summary-text,.place-label:hover,.place-label:focus-visible,.place-label.is-linked-hover{fill:#a83d35;text-decoration:underline}.stop:hover circle,.stop:focus-visible circle,.stop.is-linked-hover circle{stroke:#292824;stroke-width:4}.lightbox-map .divider,.lightbox-map .route-title,.lightbox-map .summary-stop{display:none}
  </style>
  <rect class="background" width="1200" height="760" rx="24" />
  <text class="title" x="42" y="52">South America</text>
  <rect class="map-frame" x="42" y="82" width="810" height="620" rx="18" />
  <g clip-path="url(#map-clip)">
    <path class="country context-country" d="M3116.4,213.6 L3119.0,211.5 L3122.7,215.1 L3120.9,221.7 L3114.3,223.4 L3108.5,221.8 L3107.4,216.3 L3111.5,212.0 L3116.4,213.6 Z M-698.0,195.6 L-695.8,195.0 L-697.1,201.0 L-698.0,201.7 L3129.6,204.8 L3122.8,207.4 L3121.4,202.7 L3126.7,200.2 L3130.1,199.5 L3136.3,195.6 L-698.0,195.6 Z"><title>Fiji</title></path>
<path class="country context-country" d="M650.7,417.3 L647.8,410.2 L652.5,404.3 L646.3,395.7 L638.0,388.8 L627.0,380.8 L623.0,381.1 L612.3,371.5 L605.4,372.8 L619.6,355.7 L631.7,343.6 L638.8,338.5 L647.8,331.5 L648.0,321.5 L642.7,314.3 L637.4,316.7 L639.5,309.5 L640.9,302.1 L640.9,295.2 L637.1,292.9 L633.1,294.9 L629.1,294.4 L627.9,289.6 L626.9,278.1 L624.9,274.3 L617.7,271.0 L613.3,273.4 L602.1,271.0 L602.8,254.0 L599.7,247.0 L603.0,244.5 L602.0,237.3 L604.9,231.8 L606.8,222.0 L604.3,214.2 L598.5,210.7 L597.3,205.7 L598.9,198.5 L578.4,198.0 L574.3,183.4 L577.5,183.2 L577.3,177.8 L575.2,174.1 L574.8,166.9 L568.6,163.2 L561.9,163.3 L557.5,159.6 L550.3,157.2 L546.1,152.5 L534.2,150.4 L522.6,139.2 L523.5,130.8 L522.2,126.0 L523.3,116.6 L509.4,118.7 L503.7,123.4 L494.4,128.5 L492.0,132.3 L486.5,132.6 L478.6,131.5 L472.6,133.7 L467.8,132.2 L468.5,113.2 L459.7,120.6 L450.3,120.2 L446.3,113.6 L439.3,112.8 L441.5,107.5 L435.6,99.8 L431.2,88.6 L434.0,86.3 L434.0,81.0 L440.4,77.4 L439.3,70.6 L442.1,66.2 L442.8,60.4 L455.0,51.9 L463.7,49.5 L465.1,47.6 L474.8,48.2 L479.6,13.8 L479.8,8.4 L478.1,1.2 L473.4,-3.4 L473.5,-12.5 L479.4,-14.5 L481.6,-13.2 L481.9,-18.0 L475.7,-19.3 L475.6,-27.2 L496.3,-26.9 L499.8,-31.2 L502.8,-27.2 L504.9,-19.8 L506.9,-21.4 L512.8,-14.8 L521.0,-15.6 L523.1,-19.4 L531.0,-22.3 L535.4,-24.4 L536.7,-29.7 L544.2,-33.2 L543.7,-35.9 L534.7,-37.0 L533.2,-44.8 L533.6,-53.2 L528.8,-56.5 L530.8,-57.6 L538.7,-56.0 L547.2,-52.9 L550.3,-55.9 L557.9,-57.8 L569.8,-62.5 L573.7,-67.3 L572.3,-70.8 L577.9,-71.4 L580.3,-68.5 L578.9,-63.0 L582.6,-61.1 L585.0,-55.3 L582.1,-50.8 L580.4,-40.2 L583.1,-33.9 L583.9,-28.0 L590.5,-22.2 L595.7,-21.6 L596.9,-24.0 L600.2,-24.6 L605.1,-26.8 L608.5,-30.1 L614.4,-29.0 L617.0,-29.5 L622.8,-28.5 L623.7,-31.0 L622.0,-33.5 L623.0,-37.1 L627.3,-36.0 L632.4,-37.3 L638.5,-34.6 L643.1,-32.1 L646.4,-35.4 L648.8,-34.9 L650.2,-31.4 L655.3,-32.3 L659.4,-37.0 L662.7,-46.3 L669.0,-57.7 L672.6,-58.3 L675.3,-51.4 L681.2,-29.5 L686.9,-27.4 L687.2,-18.8 L679.2,-8.5 L682.5,-4.7 L701.3,-2.7 L701.7,9.8 L709.8,1.6 L723.2,6.1 L740.9,13.8 L746.1,21.1 L744.4,28.0 L756.7,24.2 L777.5,30.8 L793.4,30.3 L809.1,40.7 L822.7,54.7 L830.9,58.3 L840.0,58.8 L843.9,62.8 L847.5,78.7 L849.3,86.3 L845.1,107.0 L839.6,115.2 L824.6,132.6 L817.8,146.8 L809.9,157.6 L807.3,157.9 L804.3,167.1 L805.1,190.6 L802.1,209.9 L801.0,218.1 L797.6,223.1 L795.7,239.8 L784.9,256.2 L783.1,269.1 L774.5,274.5 L772.0,282.0 L760.4,282.0 L743.6,286.8 L736.2,292.4 L724.2,296.1 L711.7,306.0 L702.7,318.4 L701.1,327.8 L702.9,334.7 L700.9,347.4 L698.5,353.5 L691.0,360.4 L679.2,382.4 L669.9,392.3 L662.6,398.2 L657.7,410.1 L650.7,417.3 Z"><title>Brazil</title></path>
<path class="country route-country" d="M488.2,653.6 L492.3,659.4 L497.6,668.8 L511.4,676.3 L526.3,679.4 L521.5,685.7 L511.4,686.3 L506.0,681.9 L499.6,681.6 L488.2,681.6 L488.2,653.6 Z M605.4,372.8 L602.8,382.8 L599.9,395.7 L600.0,408.2 L597.7,411.0 L596.9,419.1 L596.2,425.6 L609.7,436.3 L608.2,445.0 L614.9,450.4 L614.3,456.5 L604.1,472.6 L588.3,479.3 L566.9,481.9 L555.3,480.7 L557.5,488.1 L555.3,497.5 L557.3,503.8 L550.9,508.2 L540.0,510.0 L529.8,505.4 L525.6,508.7 L527.1,521.1 L534.3,524.9 L540.1,520.9 L543.3,527.4 L533.5,531.3 L525.0,539.1 L523.4,551.7 L520.9,558.4 L510.8,558.5 L502.5,564.9 L499.4,574.3 L509.9,583.4 L520.1,586.0 L516.4,597.2 L503.8,604.3 L496.9,618.9 L487.2,623.9 L482.8,629.8 L486.2,642.8 L493.3,650.0 L488.8,649.4 L479.0,647.4 L453.2,645.7 L448.8,638.4 L449.0,629.1 L441.9,629.9 L438.2,625.3 L437.3,612.1 L445.4,606.5 L448.8,598.6 L447.5,592.3 L453.2,581.6 L457.1,565.0 L455.9,557.6 L460.6,555.3 L459.5,550.5 L454.5,548.0 L458.1,542.8 L453.2,538.0 L450.7,523.6 L455.0,521.0 L453.2,505.8 L455.7,492.9 L458.6,481.8 L465.0,477.2 L461.7,465.0 L461.7,453.5 L469.7,445.3 L469.5,434.8 L475.6,422.6 L475.6,411.1 L472.9,408.8 L467.9,387.2 L474.5,374.3 L473.5,362.2 L477.3,350.8 L484.3,339.0 L491.8,331.2 L488.6,326.3 L490.8,322.3 L490.5,301.4 L502.1,295.2 L505.7,282.2 L504.4,279.1 L513.3,267.8 L527.3,270.8 L533.5,279.9 L537.7,269.8 L549.8,270.3 L551.5,273.0 L571.1,293.4 L579.8,295.3 L592.8,304.6 L603.8,309.5 L605.3,315.0 L594.9,334.1 L605.6,337.5 L617.6,339.4 L626.0,337.4 L635.7,327.8 L637.4,316.7 L642.7,314.3 L648.0,321.5 L647.8,331.5 L638.8,338.5 L631.7,343.6 L619.6,355.7 L605.4,372.8 Z"><title>Argentina</title></path>
<path class="country route-country" d="M488.2,653.6 L488.2,681.6 L499.6,681.6 L506.0,681.9 L502.5,687.0 L493.4,690.9 L488.1,690.5 L481.8,689.5 L474.1,685.7 L462.9,683.9 L449.5,676.9 L438.6,670.2 L424.0,656.1 L432.7,658.8 L447.7,667.1 L461.8,671.6 L467.3,665.9 L470.8,657.3 L480.6,652.1 L488.2,653.6 Z M478.0,214.5 L483.2,223.0 L484.6,232.1 L490.2,237.4 L486.8,249.5 L492.6,263.6 L496.8,280.8 L504.4,279.1 L505.7,282.2 L502.1,295.2 L490.5,301.4 L490.8,322.3 L488.6,326.3 L491.8,331.2 L484.3,339.0 L477.3,350.8 L473.5,362.2 L474.5,374.3 L467.9,387.2 L472.9,408.8 L475.6,411.1 L475.6,422.6 L469.5,434.8 L469.7,445.3 L461.7,453.5 L461.7,465.0 L465.0,477.2 L458.6,481.8 L455.7,492.9 L453.2,505.8 L455.0,521.0 L450.7,523.6 L453.2,538.0 L458.1,542.8 L454.5,548.0 L459.5,550.5 L460.6,555.3 L455.9,557.6 L457.1,565.0 L453.2,581.6 L447.5,592.3 L448.8,598.6 L445.4,606.5 L437.3,612.1 L438.2,625.3 L441.9,629.9 L449.0,629.1 L448.8,638.4 L453.2,645.7 L479.0,647.4 L488.8,649.4 L479.4,649.3 L474.2,652.4 L464.6,656.9 L462.9,668.6 L458.4,668.9 L446.4,664.8 L434.2,656.1 L420.9,648.9 L417.6,641.0 L420.6,633.7 L415.3,625.3 L413.9,604.0 L418.4,591.9 L429.7,582.2 L413.5,578.6 L423.7,567.5 L427.3,546.7 L439.1,551.1 L444.7,525.2 L437.5,521.8 L434.2,537.5 L427.5,535.7 L430.8,517.8 L434.5,494.6 L439.3,486.0 L436.3,473.8 L435.4,459.7 L439.9,459.3 L446.4,439.1 L453.8,419.1 L458.3,400.4 L455.9,381.6 L459.0,371.3 L457.7,355.8 L464.0,340.5 L465.9,316.3 L469.3,290.3 L472.7,262.3 L471.9,241.8 L469.7,224.1 L475.2,220.9 L478.0,214.5 Z"><title>Chile</title></path>
<path class="country route-country" d="M478.6,131.5 L486.5,132.6 L492.0,132.3 L494.4,128.5 L503.7,123.4 L509.4,118.7 L523.3,116.6 L522.2,126.0 L523.5,130.8 L522.6,139.2 L534.2,150.4 L546.1,152.5 L550.3,157.2 L557.5,159.6 L561.9,163.3 L568.6,163.2 L574.8,166.9 L575.2,174.1 L577.3,177.8 L577.5,183.2 L574.3,183.4 L578.4,198.0 L598.9,198.5 L597.3,205.7 L598.5,210.7 L604.3,214.2 L606.8,222.0 L604.9,231.8 L602.0,237.3 L603.0,244.5 L599.7,247.0 L599.5,243.2 L589.6,236.8 L579.7,236.6 L561.1,240.2 L556.0,251.3 L555.7,258.0 L551.5,273.0 L549.8,270.3 L537.7,269.8 L533.5,279.9 L527.3,270.8 L513.3,267.8 L504.4,279.1 L496.8,280.8 L492.6,263.6 L486.8,249.5 L490.2,237.4 L484.6,232.1 L483.2,223.0 L478.0,214.5 L484.7,201.0 L480.1,190.5 L482.6,186.3 L480.7,181.6 L484.8,175.4 L485.0,164.7 L485.5,155.9 L487.8,151.7 L478.6,131.5 Z"><title>Bolivia</title></path>
<path class="country route-country" d="M474.8,48.2 L465.1,47.6 L463.7,49.5 L455.0,51.9 L442.8,60.4 L442.1,66.2 L439.3,70.6 L440.4,77.4 L434.0,81.0 L434.0,86.3 L431.2,88.6 L435.6,99.8 L441.5,107.5 L439.3,112.8 L446.3,113.6 L450.3,120.2 L459.7,120.6 L468.5,113.2 L467.8,132.2 L472.6,133.7 L478.6,131.5 L487.8,151.7 L485.5,155.9 L485.0,164.7 L484.8,175.4 L480.7,181.6 L482.6,186.3 L480.1,190.5 L484.7,201.0 L478.0,214.5 L475.2,220.9 L469.7,224.1 L459.0,216.9 L458.1,211.8 L436.9,199.2 L417.8,185.5 L409.6,177.8 L405.2,167.5 L407.0,163.9 L397.9,147.4 L387.4,124.3 L377.4,99.4 L373.0,93.7 L369.7,84.4 L361.4,76.3 L353.8,71.2 L357.2,65.6 L352.1,53.7 L355.4,44.9 L363.9,37.0 L365.1,42.2 L362.1,45.2 L362.4,49.8 L366.8,48.8 L371.1,50.1 L375.6,56.4 L381.6,51.3 L383.6,42.8 L390.1,31.9 L403.0,27.0 L414.6,13.9 L417.9,5.7 L416.4,-3.8 L419.2,-5.0 L426.3,1.0 L429.7,6.9 L434.7,10.1 L440.9,23.3 L448.8,24.8 L454.7,21.5 L458.6,23.7 L465.0,22.6 L473.1,28.4 L466.3,41.2 L469.4,41.5 L474.8,48.2 Z"><title>Peru</title></path>
    <text class="country-label" x="489.7" y="249.6">Brazil</text>
<text class="country-label" x="492.7" y="458.9">Argentina</text>
<text class="country-label" x="459.6" y="441.7">Chile</text>
<text class="country-label" x="513.1" y="198.7">Bolivia</text>
<text class="country-label" x="420.0" y="153.1">Peru</text>
    <path class="route-halo" d="M398.6,145.4 L393.4,113.7 L377.4,95.9 L407.1,167.7 L412.6,170.4 L421.0,180.1 L457.2,199.7 L452.5,163.7 L446.5,159.2 L452.5,163.7 L482.3,152.0 L473.3,192.7 L483.3,196.9 L493.5,201.0 L514.5,212.1 L518.7,221.4 L514.5,212.1 L524.1,232.9 L518.9,239.7 L507.5,250.6 L492.8,281.3 L466.7,413.2 L463.9,660.2 L446.9,642.3 L449.4,624.8 L442.8,612.2 L449.4,624.8 L440.2,626.8 L449.4,624.8 L446.9,642.3 L463.9,660.2" />
    <path class="route" d="M398.6,145.4 L393.4,113.7 L377.4,95.9 L407.1,167.7 L412.6,170.4 L421.0,180.1 L457.2,199.7 L452.5,163.7 L446.5,159.2 L452.5,163.7 L482.3,152.0 L473.3,192.7 L483.3,196.9 L493.5,201.0 L514.5,212.1 L518.7,221.4 L514.5,212.1 L524.1,232.9 L518.9,239.7 L507.5,250.6 L492.8,281.3 L466.7,413.2 L463.9,660.2 L446.9,642.3 L449.4,624.8 L442.8,612.2 L449.4,624.8 L440.2,626.8 L449.4,624.8 L446.9,642.3 L463.9,660.2" />
    <g class="stop stop-link start" data-section="0" data-stop-name="Lima" transform="translate(398.6 145.4)">
      <circle r="7" />
      
      <title>1. Lima</title>
    </g>
<g class="stop stop-link" data-section="1" data-stop-name="Huaraz" transform="translate(393.4 113.7)">
      <circle r="7" />
      
      <title>2. Huaraz</title>
    </g>
<g class="stop stop-link" data-section="5" data-stop-name="Trujillo" transform="translate(377.4 95.9)">
      <circle r="7" />
      
      <title>3. Trujillo</title>
    </g>
<g class="stop stop-link" data-section="7" data-stop-name="Paracas" transform="translate(407.1 167.7)">
      <circle r="7" />
      
      <title>4. Paracas</title>
    </g>
<g class="stop stop-link" data-section="8" data-stop-name="Ica" transform="translate(412.6 170.4)">
      <circle r="7" />
      
      <title>5. Ica</title>
    </g>
<g class="stop stop-link" data-section="9" data-stop-name="Nazca" transform="translate(421.0 180.1)">
      <circle r="7" />
      
      <title>6. Nazca</title>
    </g>
<g class="stop stop-link" data-section="10" data-stop-name="Arequipa" transform="translate(457.2 199.7)">
      <circle r="7" />
      
      <title>7. Arequipa</title>
    </g>
<g class="stop stop-link" data-section="12" data-stop-name="Cusco" transform="translate(452.5 163.7)">
      <circle r="7" />
      
      <title>8. Cusco</title>
    </g>
<g class="stop stop-link" data-section="18" data-stop-name="Machu Picchu" transform="translate(446.5 159.2)">
      <circle r="7" />
      
      <title>9. Machu Picchu</title>
    </g>
<g class="stop stop-link" data-section="20" data-stop-name="Puerto Maldonado" transform="translate(482.3 152.0)">
      <circle r="7" />
      
      <title>10. Puerto Maldonado</title>
    </g>
<g class="stop stop-link" data-section="23" data-stop-name="Puno" transform="translate(473.3 192.7)">
      <circle r="7" />
      
      <title>11. Puno</title>
    </g>
<g class="stop stop-link" data-section="25" data-stop-name="Copacabana" transform="translate(483.3 196.9)">
      <circle r="7" />
      
      <title>12. Copacabana</title>
    </g>
<g class="stop stop-link" data-section="27" data-stop-name="La Paz" transform="translate(493.5 201.0)">
      <circle r="7" />
      
      <title>13. La Paz</title>
    </g>
<g class="stop stop-link" data-section="28" data-stop-name="Cochabamba" transform="translate(514.5 212.1)">
      <circle r="7" />
      
      <title>14. Cochabamba</title>
    </g>
<g class="stop stop-link" data-section="30" data-stop-name="Torotoro" transform="translate(518.7 221.4)">
      <circle r="7" />
      
      <title>15. Torotoro</title>
    </g>
<g class="stop stop-link" data-section="32" data-stop-name="Sucre" transform="translate(524.1 232.9)">
      <circle r="7" />
      
      <title>16. Sucre</title>
    </g>
<g class="stop stop-link" data-section="35" data-stop-name="Potosi" transform="translate(518.9 239.7)">
      <circle r="7" />
      
      <title>17. Potosi</title>
    </g>
<g class="stop stop-link" data-section="37" data-stop-name="Uyuni" transform="translate(507.5 250.6)">
      <circle r="7" />
      
      <title>18. Uyuni</title>
    </g>
<g class="stop stop-link" data-section="41" data-stop-name="San Pedro de Atacama" transform="translate(492.8 281.3)">
      <circle r="7" />
      
      <title>19. San Pedro de Atacama</title>
    </g>
<g class="stop stop-link" data-section="43" data-stop-name="Santiago" transform="translate(466.7 413.2)">
      <circle r="7" />
      
      <title>20. Santiago</title>
    </g>
<g class="stop stop-link" data-section="45" data-stop-name="Punta Arenas" transform="translate(463.9 660.2)">
      <circle r="7" />
      
      <title>21. Punta Arenas</title>
    </g>
<g class="stop stop-link" data-section="46" data-stop-name="Puerto Natales" transform="translate(446.9 642.3)">
      <circle r="7" />
      
      <title>22. Puerto Natales</title>
    </g>
<g class="stop stop-link" data-section="49" data-stop-name="El Calafate" transform="translate(449.4 624.8)">
      <circle r="7" />
      
      <title>23. El Calafate</title>
    </g>
<g class="stop stop-link" data-section="50" data-stop-name="El Chalten" transform="translate(442.8 612.2)">
      <circle r="7" />
      
      <title>24. El Chalten</title>
    </g>
<g class="stop stop-link end" data-section="51" data-stop-name="Perito Moreno" transform="translate(440.2 626.8)">
      <circle r="7" />
      
      <title>25. Perito Moreno</title>
    </g>
    <text class="place-label stop-link" data-section="0" data-stop-name="Lima" x="410.6" y="135.4" text-anchor="start">Lima</text>
<text class="place-label stop-link" data-section="1" data-stop-name="Huaraz" x="405.4" y="131.7" text-anchor="start">Huaraz</text>

<text class="place-label stop-link" data-section="7" data-stop-name="Paracas" x="419.1" y="185.7" text-anchor="start">Paracas</text>


<text class="place-label stop-link" data-section="10" data-stop-name="Arequipa" x="469.2" y="189.7" text-anchor="start">Arequipa</text>
<text class="place-label stop-link" data-section="12" data-stop-name="Cusco" x="464.5" y="181.7" text-anchor="start">Cusco</text>

<text class="place-label stop-link" data-section="20" data-stop-name="Puerto Maldonado" x="494.3" y="170.0" text-anchor="start">Puerto Maldonado</text>
<text class="place-label stop-link" data-section="23" data-stop-name="Puno" x="485.3" y="182.7" text-anchor="start">Puno</text>

<text class="place-label stop-link" data-section="27" data-stop-name="La Paz" x="505.5" y="191.0" text-anchor="start">La Paz</text>


<text class="place-label stop-link" data-section="32" data-stop-name="Sucre" x="536.1" y="250.9" text-anchor="start">Sucre</text>

<text class="place-label stop-link" data-section="37" data-stop-name="Uyuni" x="519.5" y="268.6" text-anchor="start">Uyuni</text>
<text class="place-label stop-link" data-section="41" data-stop-name="San Pedro de Atacama" x="504.8" y="271.3" text-anchor="start">San Pedro de Atacama</text>
<text class="place-label stop-link" data-section="43" data-stop-name="Santiago" x="478.7" y="431.2" text-anchor="start">Santiago</text>
<text class="place-label stop-link" data-section="45" data-stop-name="Punta Arenas" x="475.9" y="650.2" text-anchor="start">Punta Arenas</text>

<text class="place-label stop-link" data-section="49" data-stop-name="El Calafate" x="461.4" y="614.8" text-anchor="start">El Calafate</text>
<text class="place-label stop-link" data-section="50" data-stop-name="El Chalten" x="456.8" y="596.2" text-anchor="start">El Chalten</text>
<text class="place-label stop-link" data-section="51" data-stop-name="Perito Moreno" x="426.2" y="650.8" text-anchor="end">Perito Moreno</text>
  </g>
  <line class="divider" x1="878" y1="82" x2="878" y2="702" />
  <text class="route-title" x="900" y="108">ROUTE</text>
  <g class="summary-stop stop-link" data-section="0" data-stop-name="Lima" transform="translate(900 145.0)">
      <text class="summary-number" x="0" y="0">01</text>
      <text class="summary-text" x="34" y="0"><tspan x="34" dy="0">Lima</tspan></text>
    </g>
<g class="summary-stop stop-link" data-section="1" data-stop-name="Huaraz · Trujillo" transform="translate(900 199.0)">
      <text class="summary-number" x="0" y="0">02</text>
      <text class="summary-text" x="34" y="0"><tspan x="34" dy="0">Huaraz · Trujillo</tspan></text>
    </g>
<g class="summary-stop stop-link" data-section="7" data-stop-name="Paracas · Ica · Nazca" transform="translate(900 253.0)">
      <text class="summary-number" x="0" y="0">03</text>
      <text class="summary-text" x="34" y="0"><tspan x="34" dy="0">Paracas · Ica · Nazca</tspan></text>
    </g>
<g class="summary-stop stop-link" data-section="10" data-stop-name="Arequipa" transform="translate(900 307.0)">
      <text class="summary-number" x="0" y="0">04</text>
      <text class="summary-text" x="34" y="0"><tspan x="34" dy="0">Arequipa</tspan></text>
    </g>
<g class="summary-stop stop-link" data-section="12" data-stop-name="Cusco · Machu Picchu" transform="translate(900 361.0)">
      <text class="summary-number" x="0" y="0">05</text>
      <text class="summary-text" x="34" y="0"><tspan x="34" dy="0">Cusco · Machu Picchu</tspan></text>
    </g>
<g class="summary-stop stop-link" data-section="20" data-stop-name="Puerto Maldonado · Titicaca" transform="translate(900 415.0)">
      <text class="summary-number" x="0" y="0">06</text>
      <text class="summary-text" x="34" y="0"><tspan x="34" dy="0">Puerto Maldonado · Titicaca</tspan></text>
    </g>
<g class="summary-stop stop-link" data-section="27" data-stop-name="La Paz · Torotoro" transform="translate(900 469.0)">
      <text class="summary-number" x="0" y="0">07</text>
      <text class="summary-text" x="34" y="0"><tspan x="34" dy="0">La Paz · Torotoro</tspan></text>
    </g>
<g class="summary-stop stop-link" data-section="28" data-stop-name="Cochabamba · Sucre · Potosi" transform="translate(900 523.0)">
      <text class="summary-number" x="0" y="0">08</text>
      <text class="summary-text" x="34" y="0"><tspan x="34" dy="0">Cochabamba · Sucre · Potosi</tspan></text>
    </g>
<g class="summary-stop stop-link" data-section="37" data-stop-name="Uyuni · Atacama" transform="translate(900 577.0)">
      <text class="summary-number" x="0" y="0">09</text>
      <text class="summary-text" x="34" y="0"><tspan x="34" dy="0">Uyuni · Atacama</tspan></text>
    </g>
<g class="summary-stop stop-link" data-section="43" data-stop-name="Santiago · Patagonia" transform="translate(900 631.0)">
      <text class="summary-number" x="0" y="0">10</text>
      <text class="summary-text" x="34" y="0"><tspan x="34" dy="0">Santiago · Patagonia</tspan></text>
    </g>
  <text class="attribution" x="42" y="735">Country boundaries: Natural Earth via world-atlas · Route positions are approximate</text>
</svg>