<svg xmlns="http://www.w3.org/2000/svg" viewBox="0 0 1200 760" role="img" aria-labelledby="title desc">
  <title id="title">Taiwan route map</title>
  <desc id="desc">Taiwan itinerary: Taipei, Jiufen, Hualien, Kaohsiung, Taichung, Sun Moon Lake, Taipei (return).</desc>
  <defs>
    <filter id="shadow" x="-20%" y="-20%" width="140%" height="140%"><feDropShadow dx="0" dy="2" stdDeviation="3" flood-opacity="0.16" /></filter>
    <clipPath id="map-clip"><rect x="42" y="82" width="810" height="620" rx="18" /></clipPath>
  </defs>
  <style>
    .background{fill:#f5f1e9}.map-frame{fill:#dce8ea}.country{stroke:#8b8a82;stroke-width:1.4;vector-effect:non-scaling-stroke}.context-country{fill:#eeeae1;stroke:#aaa79f}.route-country{fill:#d8d0bf;stroke:#74736d;stroke-width:1.7}.country-label{font:700 10px Arial,sans-serif;fill:#77736b;letter-spacing:1px;text-anchor:middle;paint-order:stroke;stroke:#f1ede5;stroke-width:3px}.route-halo{fill:none;stroke:#fff;stroke-width:9;stroke-linecap:round;stroke-linejoin:round;opacity:.82}.route{fill:none;stroke:#d45545;stroke-width:5;stroke-linecap:round;stroke-linejoin:round}.stop circle{fill:#d45545;stroke:#fff;stroke-width:2.5;filter:url(#shadow);transition:stroke-width .15s ease}.stop.start circle{fill:#24735c}.stop.end circle{stroke:#71312d;stroke-width:3}.stop text{font:700 10px Arial,sans-serif;fill:#fff;text-anchor:middle}.place-label{font:600 14px Arial,sans-serif;fill:#292824;paint-order:stroke;stroke:#f5f1e9;stroke-width:4;stroke-linejoin:round}.title{font:700 34px Georgia,serif;fill:#292824}.route-title{font:700 13px Arial,sans-serif;fill:#77736b;letter-spacing:2px}.summary-number{font:700 13px Arial,sans-serif;fill:#d45545}.summary-text{font:600 14px Arial,sans-serif;fill:#292824}.attribution{font:11px Arial,sans-serif;fill:#77736b}.divider{stroke:#cbc5b9;stroke-width:1}.stop-link{cursor:pointer;outline:none}.summary-text,.place-label{transition:fill .15s ease}.summary-stop:hover .summary-text,.summary-stop:focus-visible .summary-text,.summary-stop.is-linked-hover .summary-text,.place-label:hover,.place-label:focus-visible,.place-label.is-linked-hover{fill:#a83d35;text-decoration:underline}.stop:hover circle,.stop:focus-visible circle,.stop.is-linked-hover circle{stroke:#292824;stroke-width:4}.lightbox-map .divider,.lightbox-map .route-title,.lightbox-map .summary-stop{display:none}
  </style>
  <rect class="background" width="1200" height="760" rx="24" />
  <text class="title" x="42" y="52">Taiwan</text>
  <rect class="map-frame" x="42" y="82" width="810" height="620" rx="18" />
  <g clip-path="url(#map-clip)">
    <path class="country context-country" d="M-1150.6,1201.4 L-1264.4,1154.6 L-1268.4,1024.3 L-1200.0,956.0 L-1048.3,913.5 L-969.0,917.1 L-938.0,974.9 L-998.9,1041.5 L-1030.8,1128.7 L-1150.6,1201.4 Z M-5200.4,-2450.9 L-5211.4,-2537.2 L-5116.6,-2576.6 L-5241.4,-2839.2 L-4966.9,-2899.6 L-4895.5,-2933.1 L-4795.7,-3203.9 L-4520.7,-3154.3 L-4443.4,-3222.6 L-4436.9,-3374.1 L-4322.1,-3388.5 L-4216.3,-3489.1 L-4161.9,-3501.6 L-4125.5,-3395.9 L-4009.2,-3315.8 L-3811.6,-3259.0 L-3715.7,-3137.1 L-3769.1,-2960.5 L-3719.2,-2895.0 L-3554.6,-2869.2 L-3367.9,-2847.9 L-3200.2,-2753.7 L-3114.9,-2736.8 L-3051.5,-2597.6 L-2970.2,-2507.8 L-2817.4,-2511.3 L-2531.0,-2477.3 L-2346.8,-2498.3 L-2210.1,-2475.8 L-2005.0,-2383.9 L-1837.3,-2384.1 L-1775.9,-2337.0 L-1614.2,-2418.4 L-1390.7,-2470.9 L-1182.5,-2476.5 L-1020.9,-2529.8 L-921.0,-2610.7 L-824.2,-2661.6 L-846.7,-2711.5 L-891.1,-2769.6 L-818.2,-2867.1 L-740.4,-2853.5 L-597.7,-2822.8 L-459.4,-2902.9 L-248.3,-2961.6 L-146.5,-3061.6 L-49.2,-3104.6 L152.4,-3124.6 L261.7,-3107.7 L276.7,-3161.5 L151.4,-3267.2 L40.1,-3315.5 L-66.7,-3259.5 L-203.4,-3283.0 L-281.8,-3264.1 L-317.7,-3325.8 L-219.4,-3476.8 L-152.0,-3590.9 L14.2,-3533.9 L209.8,-3629.3 L208.3,-3695.9 L333.6,-3856.3 L410.9,-3904.7 L408.9,-3988.2 L333.1,-4024.3 L447.4,-4099.5 L619.5,-4126.6 L803.7,-4130.7 L1010.8,-4085.7 L1132.6,-4030.1 L1218.4,-3877.6 L1270.3,-3812.6 L1318.7,-3719.7 L1370.1,-3571.5 L1611.2,-3523.1 L1775.3,-3415.6 L1831.2,-3273.6 L2042.3,-3273.3 L2162.1,-3332.9 L2391.2,-3377.7 L2318.3,-3241.6 L2264.9,-3186.3 L2217.0,-3020.7 L2124.2,-2873.5 L1955.5,-2900.1 L1836.7,-2846.9 L1873.2,-2717.4 L1853.2,-2538.7 L1782.3,-2534.6 L1783.3,-2457.9 L1694.0,-2546.9 L1638.6,-2462.2 L1424.5,-2397.2 L1446.5,-2317.3 L1326.2,-2323.0 L1260.8,-2370.3 L1165.5,-2263.1 L1012.8,-2181.7 L899.5,-2084.7 L705.9,-2040.9 L604.1,-1970.0 L454.3,-1928.8 L528.2,-1998.9 L499.3,-2057.8 L609.1,-2159.4 L535.7,-2238.8 L414.9,-2185.3 L258.2,-2080.1 L172.9,-1982.6 L37.1,-1975.1 L-33.7,-1904.7 L39.6,-1802.4 L152.9,-1777.5 L157.4,-1709.7 L267.2,-1665.4 L422.4,-1773.4 L545.7,-1714.6 L635.0,-1710.7 L657.5,-1631.4 L461.3,-1589.2 L396.5,-1507.5 L261.7,-1431.8 L190.8,-1325.8 L340.1,-1242.6 L394.5,-1093.9 L478.8,-955.4 L573.1,-839.2 L570.6,-726.9 L483.8,-685.7 L516.7,-605.0 L598.6,-557.9 L577.1,-434.8 L541.7,-315.1 L464.3,-301.5 L363.0,-137.7 L250.7,60.7 L122.0,241.1 L-68.7,380.6 L-261.3,508.1 L-417.5,525.5 L-502.3,592.5 L-550.2,543.4 L-628.6,618.6 L-822.2,694.4 L-969.0,717.4 L-1016.4,877.2 L-1093.2,886.1 L-1129.6,776.3 L-1096.7,718.0 L-1282.9,669.6 L-1348.2,694.1 L-1488.0,654.7 L-1553.8,593.3 L-1531.9,506.3 L-1658.6,478.6 L-1725.5,421.8 L-1843.3,502.4 L-1978.5,519.8 L-2088.8,519.1 L-2163.2,556.2 L-2235.1,578.2 L-2214.1,751.2 L-2288.0,747.1 L-2300.4,711.6 L-2304.9,649.1 L-2406.2,693.1 L-2466.6,665.2 L-2569.4,608.4 L-2529.0,483.0 L-2616.8,453.6 L-2649.8,314.3 L-2796.0,339.4 L-2779.5,160.0 L-2648.3,33.8 L-2642.8,-90.8 L-2646.8,-206.5 L-2707.2,-242.6 L-2753.6,-331.7 L-2834.4,-320.4 L-2984.1,-343.2 L-2937.2,-406.7 L-3002.1,-500.6 L-3100.9,-436.9 L-3217.2,-474.0 L-3377.4,-377.8 L-3503.1,-265.4 L-3614.9,-246.5 L-3675.8,-287.2 L-3749.2,-290.7 L-3848.0,-325.8 L-3922.9,-287.4 L-4014.7,-175.1 L-4026.2,-294.1 L-4111.0,-262.3 L-4272.7,-276.9 L-4429.4,-311.7 L-4541.7,-378.0 L-4649.5,-408.0 L-4695.9,-480.7 L-4774.2,-502.2 L-4914.0,-600.7 L-5025.3,-647.3 L-5082.7,-611.2 L-5275.3,-716.9 L-5411.5,-812.6 L-5450.5,-979.2 L-5350.6,-959.0 L-5346.2,-1036.1 L-5401.6,-1113.6 L-5387.6,-1237.0 L-5536.3,-1414.1 L-5764.4,-1475.3 L-5805.3,-1591.5 L-5907.6,-1662.1 L-5932.5,-1705.4 L-5953.5,-1791.6 L-5948.5,-1850.5 L-6032.9,-1884.8 L-6078.3,-1869.7 L-6113.2,-2009.4 L-6073.8,-2044.2 L-6093.2,-2079.6 L-5960.5,-2151.0 L-5864.7,-2180.7 L-5718.0,-2160.2 L-5665.5,-2256.9 L-5487.9,-2274.8 L-5438.5,-2334.7 L-5219.9,-2416.6 L-5200.4,-2450.9 Z"><title>China</title></path>
<path class="country route-country" d="M554.7,264.4 L471.3,506.8 L411.9,630.9 L339.1,503.2 L323.1,391.1 L404.4,242.4 L515.7,128.0 L579.1,173.0 L554.7,264.4 Z"><title>Taiwan</title></path>
    <text class="country-label" x="447.0" y="392.0">China</text>
<text class="country-label" x="451.1" y="379.5">Taiwan</text>
    <path class="route-halo" d="M524.6,166.7 L563.4,156.1 L531.6,327.0 L351.3,532.6 L398.5,299.8 L435.9,345.1 L514.9,168.2" />
    <path class="route" d="M524.6,166.7 L563.4,156.1 L531.6,327.0 L351.3,532.6 L398.5,299.8 L435.9,345.1 L514.9,168.2" />
    <g class="stop stop-link start" data-section="0" data-stop-name="Taipei" transform="translate(524.6 166.7)">
      <circle r="10" />
      <text x="0" y="4">1</text>
      <title>1. Taipei</title>
    </g>
<g class="stop stop-link" data-section="2" data-stop-name="Jiufen" transform="translate(563.4 156.1)">
      <circle r="10" />
      <text x="0" y="4">2</text>
      <title>2. Jiufen</title>
    </g>
<g class="stop stop-link" data-section="3" data-stop-name="Hualien" transform="translate(531.6 327.0)">
      <circle r="10" />
      <text x="0" y="4">3</text>
      <title>3. Hualien</title>
    </g>
<g class="stop stop-link" data-section="5" data-stop-name="Kaohsiung" transform="translate(351.3 532.6)">
      <circle r="10" />
      <text x="0" y="4">4</text>
      <title>4. Kaohsiung</title>
    </g>
<g class="stop stop-link" data-section="7" data-stop-name="Taichung" transform="translate(398.5 299.8)">
      <circle r="10" />
      <text x="0" y="4">5</text>
      <title>5. Taichung</title>
    </g>
<g class="stop stop-link" data-section="8" data-stop-name="Sun Moon Lake" transform="translate(435.9 345.1)">
      <circle r="10" />
      <text x="0" y="4">6</text>
      <title>6. Sun Moon Lake</title>
    </g>
<g class="stop stop-link end" data-section="9" data-stop-name="Taipei (return)" transform="translate(514.9 168.2)">
      <circle r="10" />
      <text x="0" y="4">7</text>
      <title>7. Taipei (return)</title>
    </g>
    <text class="place-label stop-link" data-section="0" data-stop-name="Taipei" x="536.6" y="156.7" text-anchor="start">Taipei</text>
<text class="place-label stop-link" data-section="2" data-stop-name="Jiufen" x="575.4" y="174.1" text-anchor="start">Jiufen</text>
<text class="place-label stop-link" data-section="3" data-stop-name="Hualien" x="543.6" y="317.0" text-anchor="start">Hualien</text>
<text class="place-label stop-link" data-section="5" data-stop-name="Kaohsiung" x="363.3" y="550.6" text-anchor="start">Kaohsiung</text>
<text class="place-label stop-link" data-section="7" data-stop-name="Taichung" x="410.5" y="289.8" text-anchor="start">Taichung</text>
<text class="place-label stop-link" data-section="8" data-stop-name="Sun Moon Lake" x="447.9" y="363.1" text-anchor="start">Sun Moon Lake</text>
<text class="place-label stop-link" data-section="9" data-stop-name="Taipei (return)" x="526.9" y="158.2" text-anchor="start">Taipei (return)</text>
  </g>
  <line class="divider" x1="878" y1="82" x2="878" y2="702" />
  <text class="route-title" x="900" y="108">ROUTE</text>
  <g class="summary-stop stop-link" data-section="0" data-stop-name="1. Taipei" transform="translate(900 145.0)">
      
      <text class="summary-text" x="0" y="0"><tspan x="0" dy="0">1. Taipei</tspan></text>
    </g>
<g class="summary-stop stop-link" data-section="2" data-stop-name="2. Jiufen" transform="translate(900 203.0)">
      
      <text class="summary-text" x="0" y="0"><tspan x="0" dy="0">2. Jiufen</tspan></text>
    </g>
<g class="summary-stop stop-link" data-section="3" data-stop-name="3. Hualien" transform="translate(900 261.0)">
      
      <text class="summary-text" x="0" y="0"><tspan x="0" dy="0">3. Hualien</tspan></text>
    </g>
<g class="summary-stop stop-link" data-section="5" data-stop-name="4. Kaohsiung" transform="translate(900 319.0)">
      
      <text class="summary-text" x="0" y="0"><tspan x="0" dy="0">4. Kaohsiung</tspan></text>
    </g>
<g class="summary-stop stop-link" data-section="7" data-stop-name="5. Taichung" transform="translate(900 377.0)">
      
      <text class="summary-text" x="0" y="0"><tspan x="0" dy="0">5. Taichung</tspan></text>
    </g>
<g class="summary-stop stop-link" data-section="8" data-stop-name="6. Sun Moon Lake" transform="translate(900 435.0)">
      
      <text class="summary-text" x="0" y="0"><tspan x="0" dy="0">6. Sun Moon Lake</tspan></text>
    </g>
<g class="summary-stop stop-link" data-section="9" data-stop-name="7. Taipei (return)" transform="translate(900 493.0)">
      
      <text class="summary-text" x="0" y="0"><tspan x="0" dy="0">7. Taipei (return)</tspan></text>
    </g>
  <text class="attribution" x="42" y="735">Country boundaries: Natural Earth via world-atlas · Route positions are approximate</text>
</svg>