<svg xmlns="http://www.w3.org/2000/svg" viewBox="0 0 1200 760" role="img" aria-labelledby="title desc">
  <title id="title">Tanzania route map</title>
  <desc id="desc">Tanzania itinerary: Arusha, Tarangire, Ngorongoro, Lake Manyara, Moshi, Lushoto, Stone Town, Prison Island, Kilwa Masoko, Kilwa Kisiwani, Kilwa Kivinje, Dar es Salaam, Bagamoyo.</desc>
  <defs>
    <filter id="shadow" x="-20%" y="-20%" width="140%" height="140%"><feDropShadow dx="0" dy="2" stdDeviation="3" flood-opacity="0.16" /></filter>
    <clipPath id="map-clip"><rect x="42" y="82" width="810" height="620" rx="18" /></clipPath>
  </defs>
  <style>
    .background{fill:#f5f1e9}.map-frame{fill:#dce8ea}.country{stroke:#8b8a82;stroke-width:1.4;vector-effect:non-scaling-stroke}.context-country{fill:#eeeae1;stroke:#aaa79f}.route-country{fill:#d8d0bf;stroke:#74736d;stroke-width:1.7}.country-label{font:700 10px Arial,sans-serif;fill:#77736b;letter-spacing:1px;text-anchor:middle;paint-order:stroke;stroke:#f1ede5;stroke-width:3px}.route-halo{fill:none;stroke:#fff;stroke-width:9;stroke-linecap:round;stroke-linejoin:round;opacity:.82}.route{fill:none;stroke:#d45545;stroke-width:5;stroke-linecap:round;stroke-linejoin:round}.stop circle{fill:#d45545;stroke:#fff;stroke-width:2.5;filter:url(#shadow);transition:stroke-width .15s ease}.stop.start circle{fill:#24735c}.stop.end circle{stroke:#71312d;stroke-width:3}.stop text{font:700 10px Arial,sans-serif;fill:#fff;text-anchor:middle}.place-label{font:600 14px Arial,sans-serif;fill:#292824;paint-order:stroke;stroke:#f5f1e9;stroke-width:4;stroke-linejoin:round}.title{font:700 34px Georgia,serif;fill:#292824}.route-title{font:700 13px Arial,sans-serif;fill:#77736b;letter-spacing:2px}.summary-number{font:700 13px Arial,sans-serif;fill:#d45545}.summary-text{font:600 14px Arial,sans-serif;fill:#292824}.attribution{font:11px Arial,sans-serif;fill:#77736b}.divider{stroke:#cbc5b9;stroke-width:1}.stop-link{cursor:pointer;outline:none}.summary-text,.place-label{transition:fill .15s ease}.summary-stop:hover .summary-text,.summary-stop:focus-visible .summary-text,.summary-stop.is-linked-hover .summary-text,.place-label:hover,.place-label:focus-visible,.place-label.is-linked-hover{fill:#a83d35;text-decoration:underline}.stop:hover circle,.stop:focus-visible circle,.stop.is-linked-hover circle{stroke:#292824;stroke-width:4}.lightbox-map .divider,.lightbox-map .route-title,.lightbox-map .summary-stop{display:none}
  </style>
  <rect class="background" width="1200" height="760" rx="24" />
  <text class="title" x="42" y="52">Tanzania</text>
  <rect class="map-frame" x="42" y="82" width="810" height="620" rx="18" />
  <g clip-path="url(#map-clip)">
    <path class="country context-country" d="M143.7,281.7 L153.1,330.0 L148.0,357.3 L158.3,387.8 L188.6,417.2 L216.8,483.4 L196.3,478.1 L126.2,486.9 L112.1,493.2 L97.3,526.8 L108.9,550.0 L99.7,612.1 L93.3,664.9 L107.4,674.2 L143.9,694.7 L158.1,685.1 L162.5,741.8 L122.6,741.3 L101.2,712.4 L81.9,690.0 L41.8,682.7 L30.2,655.2 L-1.8,671.8 L-43.5,664.4 L-61.0,640.6 L-94.0,635.7 L-118.6,637.0 L-121.5,620.7 L-139.5,619.3 L-163.4,616.2 L-195.7,624.1 L-218.4,622.8 L-231.2,627.6 L-228.4,565.1 L-245.8,545.6 L-249.8,513.3 L-242.1,481.7 L-252.6,461.4 L-253.5,428.3 L-316.9,428.7 L-312.4,409.8 L-339.0,410.0 L-341.9,419.1 L-374.2,421.2 L-387.1,451.8 L-395.0,464.9 L-424.0,457.6 L-441.1,464.9 L-475.6,469.1 L-495.6,441.6 L-507.6,424.7 L-522.6,393.2 L-535.4,354.0 L-689.5,353.3 L-707.9,359.7 L-722.9,358.7 L-744.5,365.7 L-751.9,349.4 L-738.5,343.9 L-736.8,321.0 L-728.4,307.4 L-709.4,296.4 L-695.7,301.8 L-677.8,281.7 L-649.3,282.2 L-646.1,297.0 L-626.5,306.4 L-595.7,273.5 L-565.5,247.8 L-552.1,231.0 L-554.0,187.7 L-531.3,136.7 L-507.4,109.7 L-473.0,84.3 L-467.0,67.5 L-465.7,48.3 L-457.2,30.1 L-459.9,0.3 L-453.5,-46.3 L-443.1,-79.0 L-427.5,-107.1 L-424.5,-138.9 L-419.8,-175.5 L-399.5,-202.2 L-371.6,-219.1 L-328.5,-201.3 L-295.3,-181.9 L-257.1,-176.7 L-218.2,-166.5 L-202.6,-198.2 L-195.5,-202.3 L-171.6,-197.0 L-113.6,-223.2 L-92.9,-212.1 L-76.0,-213.7 L-68.3,-226.4 L-48.7,-230.9 L-9.5,-225.4 L24.0,-224.2 L41.1,-229.8 L72.8,-186.4 L96.1,-180.1 L110.2,-188.9 L134.3,-185.4 L163.4,-196.5 L175.8,-174.1 L221.7,-139.2 L218.6,-77.7 L239.5,-70.6 L222.8,-51.9 L202.7,-38.0 L182.8,-10.6 L171.7,13.8 L168.9,56.0 L156.6,76.0 L156.3,115.7 L141.2,130.4 L139.4,161.6 L132.2,165.7 L127.3,194.4 L140.5,218.2 L143.7,281.7 Z"><title>Dem. Rep. Congo</title></path>
<path class="country context-country" d="M782.9,133.7 L751.9,90.3 L751.3,-101.1 L797.0,-160.7 L811.3,-177.2 L844.7,-178.2 L891.1,-215.3 L959.2,-217.6 L1106.7,-375.3 L1143.1,-419.1 L1166.6,-451.4 L1166.6,-478.8 L1166.6,-531.8 L1166.8,-553.5 L1167.2,-554.3 L1183.9,-555.4 L1207.9,-563.2 L1235.6,-568.4 L1260.4,-586.4 L1280.1,-586.6 L1281.2,-572.1 L1276.5,-541.5 L1276.7,-513.9 L1265.6,-494.9 L1251.0,-438.1 L1225.8,-379.5 L1193.5,-312.3 L1148.8,-235.3 L1104.2,-176.5 L1042.8,-104.8 L990.5,-62.2 L912.6,-10.1 L863.9,29.9 L806.8,93.5 L794.7,121.2 L782.9,133.7 Z"><title>Somalia</title></path>
<path class="country route-country" d="M381.9,95.2 L390.8,100.9 L580.0,207.9 L583.5,238.4 L658.5,290.9 L634.5,355.6 L637.5,385.4 L670.9,404.6 L672.4,418.3 L658.1,450.0 L661.2,466.0 L657.8,491.1 L676.0,524.0 L697.6,575.8 L716.6,587.3 L675.1,617.7 L618.1,638.2 L586.7,637.3 L568.1,653.0 L531.9,654.5 L518.2,661.0 L455.4,646.3 L416.1,650.5 L401.7,579.0 L383.8,554.6 L373.5,540.0 L322.2,530.2 L292.7,514.5 L259.4,505.6 L238.6,496.8 L216.8,483.4 L188.6,417.2 L158.3,387.8 L148.0,357.3 L153.1,330.0 L143.7,281.7 L165.3,279.2 L184.3,260.1 L204.6,232.7 L217.5,221.7 L217.0,204.6 L205.7,192.7 L202.7,172.0 L217.7,165.4 L220.7,134.5 L200.0,104.9 L218.5,98.5 L275.6,99.2 L381.9,95.2 Z"><title>Tanzania</title></path>
<path class="country route-country" d="M658.5,290.9 L583.5,238.4 L580.0,207.9 L390.8,100.9 L381.9,95.2 L381.4,39.4 L396.4,18.2 L422.1,-16.6 L441.1,-54.9 L418.0,-115.2 L412.0,-141.6 L387.2,-178.1 L419.3,-209.4 L454.6,-244.1 L481.9,-235.3 L481.9,-205.8 L499.7,-188.5 L536.0,-188.5 L602.2,-143.9 L618.5,-143.3 L630.7,-144.8 L642.4,-138.7 L677.1,-134.5 L692.5,-156.5 L740.3,-178.5 L761.3,-160.7 L797.0,-160.7 L751.3,-101.1 L751.9,90.3 L782.9,133.7 L746.3,154.7 L733.5,176.5 L714.0,180.5 L706.4,217.4 L689.7,238.6 L679.6,273.6 L658.5,290.9 Z"><title>Kenya</title></path>
<path class="country route-country" d="M216.8,483.4 L238.6,496.8 L259.4,505.6 L292.7,514.5 L322.2,530.2 L346.8,553.7 L360.1,598.3 L351.3,612.5 L340.8,655.1 L350.7,698.7 L334.4,716.9 L318.4,765.7 L346.0,779.3 L187.6,822.6 L192.5,860.1 L153.1,867.3 L123.2,888.2 L117.0,906.4 L98.2,910.5 L52.9,953.7 L24.0,987.8 L6.3,988.9 L-10.6,982.9 L-69.0,977.1 L-78.4,973.2 L-78.8,968.8 L-99.3,957.0 L-133.1,954.0 L-175.9,965.9 L-210.0,933.1 L-245.3,890.1 L-242.8,722.9 L-134.0,723.6 L-138.6,705.5 L-130.8,685.8 L-140.1,661.1 L-134.0,635.7 L-139.5,619.3 L-121.5,620.7 L-118.6,637.0 L-94.0,635.7 L-61.0,640.6 L-43.5,664.4 L-1.8,671.8 L30.2,655.2 L41.8,682.7 L81.9,690.0 L101.2,712.4 L122.6,741.3 L162.5,741.8 L158.1,685.1 L143.9,694.7 L107.4,674.2 L93.3,664.9 L99.7,612.1 L108.9,550.0 L97.3,526.8 L112.1,493.2 L126.2,486.9 L196.3,478.1 L216.8,483.4 Z"><title>Zambia</title></path>
<path class="country route-country" d="M322.2,530.2 L373.5,540.0 L383.8,554.6 L401.7,579.0 L416.1,650.5 L401.7,690.5 L416.1,758.8 L434.4,758.0 L453.1,775.0 L474.9,812.9 L479.5,880.5 L456.9,891.5 L440.9,928.0 L406.9,895.5 L403.0,858.5 L414.1,834.1 L411.1,813.0 L390.4,799.8 L375.9,804.6 L346.0,779.3 L318.4,765.7 L334.4,716.9 L350.7,698.7 L340.8,655.1 L351.3,612.5 L360.1,598.3 L346.8,553.7 L322.2,530.2 Z"><title>Malawi</title></path>
<path class="country route-country" d="M416.1,650.5 L455.4,646.3 L518.2,661.0 L531.9,654.5 L568.1,653.0 L586.7,637.3 L618.1,638.2 L675.1,617.7 L716.6,587.3 L725.0,610.9 L723.0,663.2 L729.4,709.3 L731.4,791.4 L740.6,817.2 L725.0,854.7 L704.7,891.2 L671.5,923.7 L623.8,943.7 L564.9,969.3 L506.1,1025.7 L486.0,1035.3 L449.6,1072.6 L428.0,1084.7 L423.6,1122.1 L448.4,1162.0 L458.6,1192.8 L459.3,1208.5 L468.6,1205.9 L467.1,1257.4 L458.6,1281.9 L470.8,1290.8 L463.1,1312.6 L441.3,1331.4 L398.3,1349.1 L335.5,1377.6 L312.6,1397.0 L317.1,1419.1 L330.4,1422.6 L325.9,1450.3 L286.3,1449.9 L281.8,1426.6 L274.1,1403.1 L269.8,1384.2 L279.0,1325.6 L265.4,1288.4 L240.4,1214.4 L295.3,1154.7 L309.2,1116.8 L317.1,1112.1 L322.9,1081.1 L314.5,1065.6 L316.7,1026.3 L326.9,989.9 L326.9,923.4 L299.6,906.5 L274.8,902.7 L263.6,889.7 L239.5,878.6 L195.9,879.6 L192.5,860.1 L187.6,822.6 L346.0,779.3 L375.9,804.6 L390.4,799.8 L411.1,813.0 L414.1,834.1 L403.0,858.5 L406.9,895.5 L440.9,928.0 L456.9,891.5 L479.5,880.5 L474.9,812.9 L453.1,775.0 L434.4,758.0 L416.1,758.8 L401.7,690.5 L416.1,650.5 Z"><title>Mozambique</title></path>
<path class="country route-country" d="M202.7,172.0 L205.7,192.7 L217.0,204.6 L217.5,221.7 L204.6,232.7 L184.3,260.1 L165.3,279.2 L143.7,281.7 L140.5,218.2 L127.3,194.4 L159.1,198.5 L175.1,168.6 L202.7,172.0 Z"><title>Burundi</title></path>
<path class="country route-country" d="M381.9,95.2 L275.6,99.2 L218.5,98.5 L200.0,104.9 L168.9,121.0 L156.3,115.7 L156.6,76.0 L168.9,56.0 L171.7,13.8 L182.8,-10.6 L202.7,-38.0 L222.8,-51.9 L239.5,-70.6 L218.6,-77.7 L221.7,-139.2 L243.3,-153.5 L276.3,-141.7 L318.4,-154.0 L355.1,-153.9 L387.2,-178.1 L412.0,-141.6 L418.0,-115.2 L441.1,-54.9 L422.1,-16.6 L396.4,18.2 L381.4,39.4 L381.9,95.2 Z"><title>Uganda</title></path>
<path class="country route-country" d="M200.0,104.9 L220.7,134.5 L217.7,165.4 L202.7,172.0 L175.1,168.6 L159.1,198.5 L127.3,194.4 L132.2,165.7 L139.4,161.6 L141.2,130.4 L156.3,115.7 L168.9,121.0 L200.0,104.9 Z"><title>Rwanda</title></path>
    <text class="country-label" x="169.7" y="392.0">Dem. Rep. Congo</text>
<text class="country-label" x="430.1" y="378.1">Tanzania</text>
<text class="country-label" x="587.7" y="186.5">Kenya</text>
<text class="country-label" x="230.0" y="590.1">Zambia</text>
<text class="country-label" x="398.9" y="616.1">Malawi</text>
<text class="country-label" x="464.1" y="644.7">Mozambique</text>
<text class="country-label" x="172.4" y="225.1">Burundi</text>
<text class="country-label" x="298.7" y="101.5">Uganda</text>
<text class="country-label" x="174.0" y="151.7">Rwanda</text>
    <path class="route-halo" d="M527.0,223.2 L491.4,250.1 L465.3,213.4 L482.5,231.7 L561.3,220.4 L610.9,297.3 L658.4,369.1 L656.8,366.8 L674.6,516.0 L675.1,516.0 L669.3,505.0 L658.9,402.0 L642.7,383.6" />
    <path class="route" d="M527.0,223.2 L491.4,250.1 L465.3,213.4 L482.5,231.7 L561.3,220.4 L610.9,297.3 L658.4,369.1 L656.8,366.8 L674.6,516.0 L675.1,516.0 L669.3,505.0 L658.9,402.0 L642.7,383.6" />
    <g class="stop stop-link start" data-section="0" data-stop-name="Arusha" transform="translate(527.0 223.2)">
      <circle r="7" />
      
      <title>1. Arusha</title>
    </g>
<g class="stop stop-link" data-section="1" data-stop-name="Tarangire" transform="translate(491.4 250.1)">
      <circle r="7" />
      
      <title>2. Tarangire</title>
    </g>
<g class="stop stop-link" data-section="2" data-stop-name="Ngorongoro" transform="translate(465.3 213.4)">
      <circle r="7" />
      
      <title>3. Ngorongoro</title>
    </g>
<g class="stop stop-link" data-section="3" data-stop-name="Lake Manyara" transform="translate(482.5 231.7)">
      <circle r="7" />
      
      <title>4. Lake Manyara</title>
    </g>
<g class="stop stop-link" data-section="4" data-stop-name="Moshi" transform="translate(561.3 220.4)">
      <circle r="7" />
      
      <title>5. Moshi</title>
    </g>
<g class="stop stop-link" data-section="6" data-stop-name="Lushoto" transform="translate(610.9 297.3)">
      <circle r="7" />
      
      <title>6. Lushoto</title>
    </g>
<g class="stop stop-link" data-section="8" data-stop-name="Stone Town" transform="translate(658.4 369.1)">
      <circle r="7" />
      
      <title>7. Stone Town</title>
    </g>
<g class="stop stop-link" data-section="10" data-stop-name="Prison Island" transform="translate(656.8 366.8)">
      <circle r="7" />
      
      <title>8. Prison Island</title>
    </g>
<g class="stop stop-link" data-section="12" data-stop-name="Kilwa Masoko" transform="translate(674.6 516.0)">
      <circle r="7" />
      
      <title>9. Kilwa Masoko</title>
    </g>
<g class="stop stop-link" data-section="13" data-stop-name="Kilwa Kisiwani" transform="translate(675.1 516.0)">
      <circle r="7" />
      
      <title>10. Kilwa Kisiwani</title>
    </g>
<g class="stop stop-link" data-section="14" data-stop-name="Kilwa Kivinje" transform="translate(669.3 505.0)">
      <circle r="7" />
      
      <title>11. Kilwa Kivinje</title>
    </g>
<g class="stop stop-link" data-section="15" data-stop-name="Dar es Salaam" transform="translate(658.9 402.0)">
      <circle r="7" />
      
      <title>12. Dar es Salaam</title>
    </g>
<g class="stop stop-link end" data-section="16" data-stop-name="Bagamoyo" transform="translate(642.7 383.6)">
      <circle r="7" />
      
      <title>13. Bagamoyo</title>
    </g>
    <text class="place-label stop-link" data-section="0" data-stop-name="Arusha" x="539.0" y="213.2" text-anchor="start">Arusha</text>



<text class="place-label stop-link" data-section="4" data-stop-name="Moshi" x="573.3" y="210.4" text-anchor="start">Moshi</text>
<text class="place-label stop-link" data-section="6" data-stop-name="Lushoto" x="622.9" y="315.3" text-anchor="start">Lushoto</text>
<text class="place-label stop-link" data-section="8" data-stop-name="Stone Town" x="646.4" y="359.1" text-anchor="end">Stone Town</text>

<text class="place-label stop-link" data-section="12" data-stop-name="Kilwa Masoko" x="662.6" y="506.0" text-anchor="end">Kilwa Masoko</text>


<text class="place-label stop-link" data-section="15" data-stop-name="Dar es Salaam" x="646.9" y="420.0" text-anchor="end">Dar es Salaam</text>

  </g>
  <line class="divider" x1="878" y1="82" x2="878" y2="702" />
  <text class="route-title" x="900" y="108">ROUTE</text>
  <g class="summary-stop stop-link" data-section="0" data-stop-name="Arusha" transform="translate(900 145.0)">
      <text class="summary-number" x="0" y="0">01</text>
      <text class="summary-text" x="34" y="0"><tspan x="34" dy="0">Arusha</tspan></text>
    </g>
<g class="summary-stop stop-link" data-section="1" data-stop-name="Tarangire" transform="translate(900 203.0)">
      <text class="summary-number" x="0" y="0">02</text>
      <text class="summary-text" x="34" y="0"><tspan x="34" dy="0">Tarangire</tspan></text>
    </g>
<g class="summary-stop stop-link" data-section="2" data-stop-name="Ngorongoro · Manyara" transform="translate(900 261.0)">
      <text class="summary-number" x="0" y="0">03</text>
      <text class="summary-text" x="34" y="0"><tspan x="34" dy="0">Ngorongoro · Manyara</tspan></text>
    </g>
<g class="summary-stop stop-link" data-section="4" data-stop-name="Moshi · Lushoto" transform="translate(900 319.0)">
      <text class="summary-number" x="0" y="0">04</text>
      <text class="summary-text" x="34" y="0"><tspan x="34" dy="0">Moshi · Lushoto</tspan></text>
    </g>
<g class="summary-stop stop-link" data-section="8" data-stop-name="Zanzibar" transform="translate(900 377.0)">
      <text class="summary-number" x="0" y="0">05</text>
      <text class="summary-text" x="34" y="0"><tspan x="34" dy="0">Zanzibar</tspan></text>
    </g>
<g class="summary-stop stop-link" data-section="12" data-stop-name="Kilwa coast" transform="translate(900 435.0)">
      <text class="summary-number" x="0" y="0">06</text>
      <text class="summary-text" x="34" y="0"><tspan x="34" dy="0">Kilwa coast</tspan></text>
    </g>
<g class="summary-stop stop-link" data-section="15" data-stop-name="Dar es Salaam" transform="translate(900 493.0)">
      <text class="summary-number" x="0" y="0">07</text>
      <text class="summary-text" x="34" y="0"><tspan x="34" dy="0">Dar es Salaam</tspan></text>
    </g>
<g class="summary-stop stop-link" data-section="16" data-stop-name="Bagamoyo" transform="translate(900 551.0)">
      <text class="summary-number" x="0" y="0">08</text>
      <text class="summary-text" x="34" y="0"><tspan x="34" dy="0">Bagamoyo</tspan></text>
    </g>
  <text class="attribution" x="42" y="735">Country boundaries: Natural Earth via world-atlas · Route positions are approximate</text>
</svg>